STARTFONT 2.1
COMMENT
COMMENT Converted from OpenType font "Dot Matrix Bold Tall.ttf" by "otf2bdf 3.0".
COMMENT
FONT -FreeType-Dot Matrix-Bold-R-Normal--17-120-100-100-P-93-ISO10646-1
SIZE 12 100 100
FONTBOUNDINGBOX 13 15 0 -3
STARTPROPERTIES 19
FOUNDRY "FreeType"
FAMILY_NAME "Dot Matrix"
WEIGHT_NAME "Bold"
SLANT "R"
SETWIDTH_NAME "Normal"
ADD_STYLE_NAME ""
PIXEL_SIZE 17
POINT_SIZE 120
RESOLUTION_X 100
RESOLUTION_Y 100
SPACING "P"
AVERAGE_WIDTH 93
CHARSET_REGISTRY "ISO10646"
CHARSET_ENCODING "1"
FONT_ASCENT 11
FONT_DESCENT 3
COPYRIGHT "SIL Open Font License"
_OTF_FONTFILE "Dot Matrix Bold Tall.ttf"
_OTF_PSNAME "Dot_Matrix_Bold_Tall"
ENDPROPERTIES
CHARS 14
STARTCHAR 0000
ENCODING 0
SWIDTH 0 0
DWIDTH 0 0
BBX 0 0 0 0
BITMAP
ENDCHAR
STARTCHAR 000D
ENCODING 13
SWIDTH 0 0
DWIDTH 0 0
BBX 0 0 0 0
BITMAP
ENDCHAR
STARTCHAR 0020
ENCODING 32
SWIDTH 180 0
DWIDTH 3 0
BBX 0 0 0 0
BITMAP
ENDCHAR
STARTCHAR 0030
ENCODING 48
SWIDTH 900 0
DWIDTH 15 0
BBX 13 15 0 -3
BITMAP
2D60
3FF0
E038
A028
E038
A028
E038
E038
A028
E038
A028
E038
E038
A028
3FF0
ENDCHAR
STARTCHAR 0031
ENCODING 49
SWIDTH 480 0
DWIDTH 8 0
BBX 7 15 0 -3
BITMAP
28
38
F8
A8
38
28
38
38
28
38
28
38
38
28
FE
ENDCHAR
STARTCHAR 0032
ENCODING 50
SWIDTH 900 0
DWIDTH 15 0
BBX 13 15 0 -3
BITMAP
2D60
3FF0
E038
A028
0038
0028
0038
3FF0
2D60
E000
A000
E000
E000
A000
FFF8
ENDCHAR
STARTCHAR 0033
ENCODING 51
SWIDTH 900 0
DWIDTH 15 0
BBX 13 15 0 -3
BITMAP
2D60
3FF0
E038
A028
0038
0028
0038
1FF0
0D60
0038
0028
0038
E038
A028
3FF0
ENDCHAR
STARTCHAR 0034
ENCODING 52
SWIDTH 720 0
DWIDTH 12 0
BBX 10 15 0 -3
BITMAP
0540
07C0
1FC0
0D40
39C0
A140
E1C0
E1C0
A140
FFC0
0140
01C0
01C0
0140
01C0
ENDCHAR
STARTCHAR 0035
ENCODING 53
SWIDTH 900 0
DWIDTH 15 0
BBX 13 15 0 -3
BITMAP
AD68
FFF8
E000
A000
E000
A000
E000
FFF0
AD60
0038
0028
0038
E038
A028
3FF0
ENDCHAR
STARTCHAR 0036
ENCODING 54
SWIDTH 900 0
DWIDTH 15 0
BBX 13 15 0 -3
BITMAP
2D60
3FF0
E038
A028
E000
A000
E000
FFF0
AD60
E038
A028
E038
E038
A028
3FF0
ENDCHAR
STARTCHAR 0037
ENCODING 55
SWIDTH 900 0
DWIDTH 15 0
BBX 13 15 0 -3
BITMAP
AD68
FFF8
0038
0028
00F0
0140
01C0
01C0
0140
0700
0500
0700
1E00
0C00
1E00
ENDCHAR
STARTCHAR 0038
ENCODING 56
SWIDTH 900 0
DWIDTH 15 0
BBX 13 15 0 -3
BITMAP
2D60
3FF0
E038
A028
E038
A028
E038
3FF0
2D60
E038
A028
E038
E038
A028
3FF0
ENDCHAR
STARTCHAR 0039
ENCODING 57
SWIDTH 900 0
DWIDTH 15 0
BBX 13 15 0 -3
BITMAP
2D60
3FF0
E038
A028
E038
A028
E038
3FF8
2D68
0038
0028
0038
E038
A028
3FF0
ENDCHAR
STARTCHAR 003A
ENCODING 58
SWIDTH 300 0
DWIDTH 5 0
BBX 3 8 0 0
BITMAP
E0
A0
E0
00
00
E0
A0
E0
ENDCHAR
ENDFONT
