STARTFONT 2.1
COMMENT
COMMENT Converted from OpenType font "Dot Matrix Bold.ttf" by "otf2bdf 3.0".
COMMENT
FONT -FreeType-Dot Matrix-Bold-R-Normal--17-120-100-100-P-97-ISO10646-1
SIZE 12 100 100
FONTBOUNDINGBOX 13 14 0 -3
STARTPROPERTIES 19
FOUNDRY "FreeType"
FAMILY_NAME "Dot Matrix"
WEIGHT_NAME "Bold"
SLANT "R"
SETWIDTH_NAME "Normal"
ADD_STYLE_NAME ""
PIXEL_SIZE 17
POINT_SIZE 120
RESOLUTION_X 100
RESOLUTION_Y 100
SPACING "P"
AVERAGE_WIDTH 97
CHARSET_REGISTRY "ISO10646"
CHARSET_ENCODING "1"
FONT_ASCENT 11
FONT_DESCENT 3
COPYRIGHT "SIL Open Font License"
_OTF_FONTFILE "Dot Matrix Bold.ttf"
_OTF_PSNAME "Dot_Matrix_Bold"
ENDPROPERTIES
CHARS 95
STARTCHAR 0000
ENCODING 0
SWIDTH 0 0
DWIDTH 0 0
BBX 0 0 0 0
BITMAP
ENDCHAR
STARTCHAR 000D
ENCODING 13
SWIDTH 0 0
DWIDTH 0 0
BBX 0 0 0 0
BITMAP
ENDCHAR
STARTCHAR 0020
ENCODING 32
SWIDTH 180 0
DWIDTH 3 0
BBX 0 0 0 0
BITMAP
ENDCHAR
STARTCHAR 0021
ENCODING 33
SWIDTH 300 0
DWIDTH 5 0
BBX 3 11 0 0
BITMAP
E0
A0
E0
E0
A0
E0
E0
A0
00
A0
E0
ENDCHAR
STARTCHAR 0022
ENCODING 34
SWIDTH 600 0
DWIDTH 10 0
BBX 8 5 0 6
BITMAP
E7
A5
E7
E7
A5
ENDCHAR
STARTCHAR 0023
ENCODING 35
SWIDTH 780 0
DWIDTH 13 0
BBX 12 11 0 0
BITMAP
39C0
2940
39C0
FFF0
AD60
39C0
FFF0
AD60
39C0
2940
39C0
ENDCHAR
STARTCHAR 0025
ENCODING 37
SWIDTH 720 0
DWIDTH 12 0
BBX 10 11 0 0
BITMAP
E1C0
A140
E1C0
0700
0D00
1E00
3800
2800
E1C0
A140
E1C0
ENDCHAR
STARTCHAR 0026
ENCODING 38
SWIDTH 780 0
DWIDTH 13 0
BBX 12 11 0 0
BITMAP
3E00
AD00
E700
E700
AD00
3E00
E7F0
A560
E700
2C60
3EF0
ENDCHAR
STARTCHAR 0027
ENCODING 39
SWIDTH 300 0
DWIDTH 5 0
BBX 3 5 0 6
BITMAP
E0
A0
E0
E0
A0
ENDCHAR
STARTCHAR 0028
ENCODING 40
SWIDTH 480 0
DWIDTH 8 0
BBX 7 11 0 0
BITMAP
1E
2C
38
E0
A0
E0
E0
A0
38
0C
1E
ENDCHAR
STARTCHAR 0029
ENCODING 41
SWIDTH 480 0
DWIDTH 8 0
BBX 7 11 0 0
BITMAP
E0
A8
38
1E
0C
1E
1E
0C
38
A0
E0
ENDCHAR
STARTCHAR 002A
ENCODING 42
SWIDTH 720 0
DWIDTH 12 0
BBX 10 8 0 0
BITMAP
1E00
0C00
1E00
FFC0
AD40
3F00
A140
E1C0
ENDCHAR
STARTCHAR 002B
ENCODING 43
SWIDTH 720 0
DWIDTH 12 0
BBX 10 8 0 0
BITMAP
1E00
0C00
1E00
FFC0
AD40
1E00
0C00
1E00
ENDCHAR
STARTCHAR 002C
ENCODING 44
SWIDTH 420 0
DWIDTH 7 0
BBX 5 5 0 -2
BITMAP
38
28
38
E0
A0
ENDCHAR
STARTCHAR 002D
ENCODING 45
SWIDTH 420 0
DWIDTH 7 0
BBX 5 2 0 3
BITMAP
A8
F8
ENDCHAR
STARTCHAR 002E
ENCODING 46
SWIDTH 300 0
DWIDTH 5 0
BBX 3 3 0 0
BITMAP
E0
A0
E0
ENDCHAR
STARTCHAR 002F
ENCODING 47
SWIDTH 720 0
DWIDTH 12 0
BBX 10 11 0 0
BITMAP
01C0
0140
01C0
0700
0D00
1E00
3800
2800
E000
A000
E000
ENDCHAR
STARTCHAR 0030
ENCODING 48
SWIDTH 720 0
DWIDTH 12 0
BBX 10 11 0 0
BITMAP
3F00
AD40
E1C0
E1C0
A140
E1C0
E1C0
A140
E1C0
2D00
3F00
ENDCHAR
STARTCHAR 0031
ENCODING 49
SWIDTH 480 0
DWIDTH 8 0
BBX 7 11 0 0
BITMAP
38
A8
F8
38
28
38
38
28
38
AC
FE
ENDCHAR
STARTCHAR 0032
ENCODING 50
SWIDTH 720 0
DWIDTH 12 0
BBX 10 11 0 0
BITMAP
3F00
AD40
E1C0
01C0
2D40
3F00
E000
A000
E000
AD40
FFC0
ENDCHAR
STARTCHAR 0033
ENCODING 51
SWIDTH 720 0
DWIDTH 12 0
BBX 10 11 0 0
BITMAP
3F00
AD40
E1C0
01C0
0D40
1F00
01C0
0140
E1C0
2D00
3F00
ENDCHAR
STARTCHAR 0034
ENCODING 52
SWIDTH 720 0
DWIDTH 12 0
BBX 10 11 0 0
BITMAP
07C0
0D40
1FC0
39C0
A940
E1C0
FFC0
AD40
01C0
0140
01C0
ENDCHAR
STARTCHAR 0035
ENCODING 53
SWIDTH 720 0
DWIDTH 12 0
BBX 10 11 0 0
BITMAP
FFC0
AD40
E000
FF00
AD40
01C0
01C0
0140
E1C0
2D00
3F00
ENDCHAR
STARTCHAR 0036
ENCODING 54
SWIDTH 720 0
DWIDTH 12 0
BBX 10 11 0 0
BITMAP
3FC0
AD40
E000
FF00
AD40
E1C0
E1C0
A140
E1C0
2D00
3F00
ENDCHAR
STARTCHAR 0037
ENCODING 55
SWIDTH 720 0
DWIDTH 12 0
BBX 10 11 0 0
BITMAP
FFC0
AD40
01C0
0700
0D00
1E00
3800
2800
3800
2800
3800
ENDCHAR
STARTCHAR 0038
ENCODING 56
SWIDTH 720 0
DWIDTH 12 0
BBX 10 11 0 0
BITMAP
3F00
AD40
E1C0
E1C0
AD40
3F00
E1C0
A140
E1C0
2D00
3F00
ENDCHAR
STARTCHAR 0039
ENCODING 57
SWIDTH 720 0
DWIDTH 12 0
BBX 10 11 0 0
BITMAP
3F00
AD40
E1C0
E1C0
AD40
3FC0
01C0
0140
E1C0
2D00
3F00
ENDCHAR
STARTCHAR 003A
ENCODING 58
SWIDTH 300 0
DWIDTH 5 0
BBX 3 8 0 0
BITMAP
E0
A0
E0
00
00
E0
A0
E0
ENDCHAR
STARTCHAR 003B
ENCODING 59
SWIDTH 420 0
DWIDTH 7 0
BBX 5 9 0 -2
BITMAP
28
38
00
00
38
28
38
E0
A0
ENDCHAR
STARTCHAR 003C
ENCODING 60
SWIDTH 480 0
DWIDTH 8 0
BBX 7 8 0 0
BITMAP
1E
2C
38
E0
A0
38
0C
1E
ENDCHAR
STARTCHAR 003D
ENCODING 61
SWIDTH 480 0
DWIDTH 8 0
BBX 7 5 0 2
BITMAP
FE
AC
00
AC
FE
ENDCHAR
STARTCHAR 003E
ENCODING 62
SWIDTH 480 0
DWIDTH 8 0
BBX 7 8 0 0
BITMAP
E0
A8
38
1E
0C
38
A0
E0
ENDCHAR
STARTCHAR 003F
ENCODING 63
SWIDTH 600 0
DWIDTH 10 0
BBX 8 11 0 0
BITMAP
3E
AD
E7
07
0D
1E
38
28
00
28
38
ENDCHAR
STARTCHAR 0041
ENCODING 65
SWIDTH 780 0
DWIDTH 13 0
BBX 12 11 0 0
BITMAP
3FC0
AD60
E0F0
E0F0
AD60
FFF0
E0F0
A060
E0F0
A060
E0F0
ENDCHAR
STARTCHAR 0042
ENCODING 66
SWIDTH 780 0
DWIDTH 13 0
BBX 12 11 0 0
BITMAP
FFC0
AD60
E0F0
E0F0
AD60
FFC0
E0F0
A060
E0F0
AD40
FFC0
ENDCHAR
STARTCHAR 0043
ENCODING 67
SWIDTH 780 0
DWIDTH 13 0
BBX 12 11 0 0
BITMAP
3FC0
AD60
E0F0
E000
A000
E000
E000
A000
E0F0
2D40
3FC0
ENDCHAR
STARTCHAR 0044
ENCODING 68
SWIDTH 780 0
DWIDTH 13 0
BBX 12 11 0 0
BITMAP
FFC0
AD60
E0F0
E0F0
A060
E0F0
E0F0
A060
E0F0
AD40
FFC0
ENDCHAR
STARTCHAR 0045
ENCODING 69
SWIDTH 720 0
DWIDTH 12 0
BBX 10 11 0 0
BITMAP
FFC0
AD40
E000
E000
AD00
FF00
E000
A000
E000
AD40
FFC0
ENDCHAR
STARTCHAR 0046
ENCODING 70
SWIDTH 720 0
DWIDTH 12 0
BBX 10 11 0 0
BITMAP
FFC0
AD40
E000
E000
AD40
FFC0
E000
A000
E000
A000
E000
ENDCHAR
STARTCHAR 0047
ENCODING 71
SWIDTH 780 0
DWIDTH 13 0
BBX 12 11 0 0
BITMAP
3FC0
AD60
E0F0
E000
A560
E7F0
E0F0
A060
E0F0
2D40
3FC0
ENDCHAR
STARTCHAR 0048
ENCODING 72
SWIDTH 780 0
DWIDTH 13 0
BBX 12 11 0 0
BITMAP
E0F0
A060
E0F0
E0F0
AD60
FFF0
E0F0
A060
E0F0
A060
E0F0
ENDCHAR
STARTCHAR 0049
ENCODING 73
SWIDTH 720 0
DWIDTH 12 0
BBX 10 11 0 0
BITMAP
FFC0
AD40
1E00
1E00
0C00
1E00
1E00
0C00
1E00
AD40
FFC0
ENDCHAR
STARTCHAR 004A
ENCODING 74
SWIDTH 720 0
DWIDTH 12 0
BBX 10 11 0 0
BITMAP
3FC0
2D40
01C0
01C0
0140
01C0
01C0
0140
E1C0
2D00
3F00
ENDCHAR
STARTCHAR 004B
ENCODING 75
SWIDTH 780 0
DWIDTH 13 0
BBX 12 11 0 0
BITMAP
E0F0
A160
E1C0
E700
AD00
FE00
E700
A500
E1C0
A060
E0F0
ENDCHAR
STARTCHAR 004C
ENCODING 76
SWIDTH 720 0
DWIDTH 12 0
BBX 10 11 0 0
BITMAP
E000
A000
E000
E000
A000
E000
E000
A000
E000
AD40
FFC0
ENDCHAR
STARTCHAR 004D
ENCODING 77
SWIDTH 900 0
DWIDTH 15 0
BBX 13 11 0 0
BITMAP
F8F8
AD68
FFF8
E738
A528
E738
E038
A028
E038
A028
E038
ENDCHAR
STARTCHAR 004E
ENCODING 78
SWIDTH 780 0
DWIDTH 13 0
BBX 12 11 0 0
BITMAP
F8F0
AC60
FEF0
E7F0
A560
E1F0
E0F0
A060
E0F0
A060
E0F0
ENDCHAR
STARTCHAR 004F
ENCODING 79
SWIDTH 660 0
DWIDTH 11 0
BBX 10 11 0 0
BITMAP
3F00
AD40
E1C0
E1C0
A140
E1C0
E1C0
A140
E1C0
2D00
3F00
ENDCHAR
STARTCHAR 0050
ENCODING 80
SWIDTH 780 0
DWIDTH 13 0
BBX 12 11 0 0
BITMAP
FFC0
AD60
E0F0
E0F0
AD60
FFC0
E000
A000
E000
A000
E000
ENDCHAR
STARTCHAR 0051
ENCODING 81
SWIDTH 900 0
DWIDTH 15 0
BBX 13 13 0 -2
BITMAP
3FF0
AD68
E038
E038
A028
E038
E738
A528
E1F8
2D60
3FF0
0038
0028
ENDCHAR
STARTCHAR 0052
ENCODING 82
SWIDTH 780 0
DWIDTH 13 0
BBX 12 11 0 0
BITMAP
FFC0
AD60
E0F0
E0F0
AD60
FFC0
E1C0
A140
E0F0
A060
E0F0
ENDCHAR
STARTCHAR 0053
ENCODING 83
SWIDTH 780 0
DWIDTH 13 0
BBX 12 11 0 0
BITMAP
3FC0
AD60
E0F0
E000
AD40
3FC0
00F0
0060
E0F0
2D40
3FC0
ENDCHAR
STARTCHAR 0054
ENCODING 84
SWIDTH 720 0
DWIDTH 12 0
BBX 10 11 0 0
BITMAP
FFC0
AD40
1E00
1E00
0C00
1E00
1E00
0C00
1E00
0C00
1E00
ENDCHAR
STARTCHAR 0055
ENCODING 85
SWIDTH 720 0
DWIDTH 12 0
BBX 10 11 0 0
BITMAP
E1C0
A140
E1C0
E1C0
A140
E1C0
E1C0
A140
E1C0
2D00
3F00
ENDCHAR
STARTCHAR 0056
ENCODING 86
SWIDTH 780 0
DWIDTH 13 0
BBX 12 11 0 0
BITMAP
E0F0
A060
E0F0
E0F0
A060
E0F0
E0F0
A060
39C0
0D00
1F00
ENDCHAR
STARTCHAR 0057
ENCODING 87
SWIDTH 780 0
DWIDTH 13 0
BBX 12 11 0 0
BITMAP
E0F0
A060
E0F0
E0F0
A460
E6F0
FFF0
AD60
F9F0
A060
E0F0
ENDCHAR
STARTCHAR 0058
ENCODING 88
SWIDTH 780 0
DWIDTH 13 0
BBX 12 11 0 0
BITMAP
E0F0
A960
F9F0
3FC0
2D40
1F00
3FC0
2D40
F9F0
A060
E0F0
ENDCHAR
STARTCHAR 0059
ENCODING 89
SWIDTH 900 0
DWIDTH 15 0
BBX 13 11 0 0
BITMAP
E038
A028
E038
38F0
2D60
1FC0
0700
0500
0700
0500
0700
ENDCHAR
STARTCHAR 005A
ENCODING 90
SWIDTH 720 0
DWIDTH 12 0
BBX 10 11 0 0
BITMAP
FFC0
AD40
01C0
0700
0D00
1E00
3800
2800
E000
AD40
FFC0
ENDCHAR
STARTCHAR 005C
ENCODING 92
SWIDTH 600 0
DWIDTH 10 0
BBX 8 11 0 0
BITMAP
C0
80
C0
20
28
18
06
04
01
01
01
ENDCHAR
STARTCHAR 005F
ENCODING 95
SWIDTH 480 0
DWIDTH 8 0
BBX 7 2 0 0
BITMAP
AC
FE
ENDCHAR
STARTCHAR 0061
ENCODING 97
SWIDTH 780 0
DWIDTH 13 0
BBX 12 8 0 0
BITMAP
3FC0
2D60
00F0
3FF0
2D60
E0F0
2D60
3FF0
ENDCHAR
STARTCHAR 0062
ENCODING 98
SWIDTH 780 0
DWIDTH 13 0
BBX 12 11 0 0
BITMAP
E000
A000
E000
FFC0
AD60
E0F0
E0F0
A060
E0F0
AD40
FFC0
ENDCHAR
STARTCHAR 0063
ENCODING 99
SWIDTH 780 0
DWIDTH 13 0
BBX 12 8 0 0
BITMAP
3FF0
AD60
E000
E000
A000
E000
2D60
3FF0
ENDCHAR
STARTCHAR 0064
ENCODING 100
SWIDTH 780 0
DWIDTH 13 0
BBX 12 11 0 0
BITMAP
00F0
0060
00F0
3FF0
AD60
E0F0
E0F0
A060
E0F0
2D60
3FF0
ENDCHAR
STARTCHAR 0065
ENCODING 101
SWIDTH 780 0
DWIDTH 13 0
BBX 12 8 0 0
BITMAP
3FC0
AD60
E0F0
FFF0
AD60
E000
2D60
3FF0
ENDCHAR
STARTCHAR 0066
ENCODING 102
SWIDTH 600 0
DWIDTH 10 0
BBX 8 11 0 0
BITMAP
1E
2D
39
38
AC
FE
38
20
38
20
38
ENDCHAR
STARTCHAR 0067
ENCODING 103
SWIDTH 780 0
DWIDTH 13 0
BBX 12 11 0 -3
BITMAP
3FC0
AD60
E0F0
E0F0
A060
E0F0
2D60
3FF0
00F0
AD40
FFC0
ENDCHAR
STARTCHAR 0068
ENCODING 104
SWIDTH 780 0
DWIDTH 13 0
BBX 12 11 0 0
BITMAP
E000
A000
E000
FFC0
AD60
E0F0
E0F0
A060
E0F0
A060
E0F0
ENDCHAR
STARTCHAR 0069
ENCODING 105
SWIDTH 300 0
DWIDTH 5 0
BBX 3 11 0 0
BITMAP
E0
A0
00
E0
A0
E0
E0
A0
E0
A0
E0
ENDCHAR
STARTCHAR 006A
ENCODING 106
SWIDTH 600 0
DWIDTH 10 0
BBX 8 14 0 -3
BITMAP
07
05
00
07
05
07
07
05
07
05
07
E7
2C
3E
ENDCHAR
STARTCHAR 006B
ENCODING 107
SWIDTH 720 0
DWIDTH 12 0
BBX 10 11 0 0
BITMAP
E000
A000
E000
E1C0
A540
E700
FE00
AC00
E700
A140
E1C0
ENDCHAR
STARTCHAR 006C
ENCODING 108
SWIDTH 300 0
DWIDTH 5 0
BBX 3 11 0 0
BITMAP
E0
A0
E0
E0
A0
E0
E0
A0
E0
A0
E0
ENDCHAR
STARTCHAR 006D
ENCODING 109
SWIDTH 900 0
DWIDTH 15 0
BBX 13 8 0 0
BITMAP
F8F0
AD68
E738
E738
A528
E038
A028
E038
ENDCHAR
STARTCHAR 006E
ENCODING 110
SWIDTH 780 0
DWIDTH 13 0
BBX 12 8 0 0
BITMAP
FFC0
AD60
E0F0
E0F0
A060
E0F0
A060
E0F0
ENDCHAR
STARTCHAR 006F
ENCODING 111
SWIDTH 780 0
DWIDTH 13 0
BBX 12 8 0 0
BITMAP
3FC0
AD60
E0F0
E0F0
A060
E0F0
2D40
3FC0
ENDCHAR
STARTCHAR 0070
ENCODING 112
SWIDTH 780 0
DWIDTH 13 0
BBX 12 11 0 -3
BITMAP
FFC0
AD60
E0F0
E0F0
A060
E0F0
AD40
FFC0
E000
A000
E000
ENDCHAR
STARTCHAR 0071
ENCODING 113
SWIDTH 780 0
DWIDTH 13 0
BBX 12 11 0 -3
BITMAP
3FF0
AD60
E0F0
E0F0
A060
E0F0
2D60
3FF0
00F0
0060
00F0
ENDCHAR
STARTCHAR 0072
ENCODING 114
SWIDTH 780 0
DWIDTH 13 0
BBX 12 8 0 0
BITMAP
E7C0
AD60
FEF0
E000
A000
E000
A000
E000
ENDCHAR
STARTCHAR 0073
ENCODING 115
SWIDTH 720 0
DWIDTH 12 0
BBX 10 8 0 0
BITMAP
3FC0
AD40
E000
3F00
2D00
01C0
AD00
FF00
ENDCHAR
STARTCHAR 0074
ENCODING 116
SWIDTH 600 0
DWIDTH 10 0
BBX 8 11 0 0
BITMAP
38
28
38
FE
AC
38
38
28
38
0D
1F
ENDCHAR
STARTCHAR 0075
ENCODING 117
SWIDTH 780 0
DWIDTH 13 0
BBX 12 8 0 0
BITMAP
E0F0
A060
E0F0
E0F0
A060
E0F0
2D40
3FC0
ENDCHAR
STARTCHAR 0076
ENCODING 118
SWIDTH 780 0
DWIDTH 13 0
BBX 12 8 0 0
BITMAP
E0F0
A060
E0F0
E0F0
A060
39C0
0D00
1F00
ENDCHAR
STARTCHAR 0077
ENCODING 119
SWIDTH 900 0
DWIDTH 15 0
BBX 13 8 0 0
BITMAP
E038
A028
E038
E738
A528
F8F8
2860
38F0
ENDCHAR
STARTCHAR 0078
ENCODING 120
SWIDTH 780 0
DWIDTH 13 0
BBX 12 8 0 0
BITMAP
E0F0
A960
39C0
1F00
0D00
39C0
A060
E0F0
ENDCHAR
STARTCHAR 0079
ENCODING 121
SWIDTH 780 0
DWIDTH 13 0
BBX 12 11 0 -3
BITMAP
E0F0
A060
E0F0
E0F0
A060
E0F0
2D60
3FF0
00F0
AD40
FFC0
ENDCHAR
STARTCHAR 007A
ENCODING 122
SWIDTH 600 0
DWIDTH 10 0
BBX 8 8 0 0
BITMAP
FF
AD
07
3E
2C
E0
AD
FF
ENDCHAR
STARTCHAR 2010
ENCODING 8208
SWIDTH 300 0
DWIDTH 5 0
BBX 3 2 0 3
BITMAP
A0
E0
ENDCHAR
STARTCHAR 2011
ENCODING 8209
SWIDTH 300 0
DWIDTH 5 0
BBX 3 2 0 3
BITMAP
A0
E0
ENDCHAR
STARTCHAR 2012
ENCODING 8210
SWIDTH 480 0
DWIDTH 8 0
BBX 7 2 0 3
BITMAP
AC
FE
ENDCHAR
STARTCHAR 2013
ENCODING 8211
SWIDTH 420 0
DWIDTH 7 0
BBX 5 2 0 2
BITMAP
A8
F8
ENDCHAR
STARTCHAR 2014
ENCODING 8212
SWIDTH 480 0
DWIDTH 8 0
BBX 7 2 0 3
BITMAP
AC
FE
ENDCHAR
STARTCHAR 2019
ENCODING 8217
SWIDTH 300 0
DWIDTH 5 0
BBX 3 5 0 6
BITMAP
E0
A0
E0
E0
A0
ENDCHAR
STARTCHAR 201C
ENCODING 8220
SWIDTH 720 0
DWIDTH 12 0
BBX 10 5 0 6
BITMAP
39C0
AD40
E700
E700
A500
ENDCHAR
STARTCHAR 201D
ENCODING 8221
SWIDTH 720 0
DWIDTH 12 0
BBX 10 5 0 6
BITMAP
39C0
2940
39C0
E700
A500
ENDCHAR
ENDFONT
