STARTFONT 2.1
COMMENT
COMMENT Converted from OpenType font "Dot Matrix Regular.ttf" by "otf2bdf 3.0".
COMMENT
FONT -FreeType-Dot Matrix-Medium-R-Normal--17-120-100-100-P-66-ISO10646-1
SIZE 12 100 100
FONTBOUNDINGBOX 8 14 0 -3
STARTPROPERTIES 19
FOUNDRY "FreeType"
FAMILY_NAME "Dot Matrix"
WEIGHT_NAME "Medium"
SLANT "R"
SETWIDTH_NAME "Normal"
ADD_STYLE_NAME ""
PIXEL_SIZE 17
POINT_SIZE 120
RESOLUTION_X 100
RESOLUTION_Y 100
SPACING "P"
AVERAGE_WIDTH 66
CHARSET_REGISTRY "ISO10646"
CHARSET_ENCODING "1"
FONT_ASCENT 11
FONT_DESCENT 3
COPYRIGHT "SIL Open Font License"
_OTF_FONTFILE "Dot Matrix Regular.ttf"
_OTF_PSNAME "Dot_Matrix"
ENDPROPERTIES
CHARS 96
STARTCHAR 0000
ENCODING 0
SWIDTH 0 0
DWIDTH 0 0
BBX 0 0 0 0
BITMAP
ENDCHAR
STARTCHAR 000D
ENCODING 13
SWIDTH 0 0
DWIDTH 0 0
BBX 0 0 0 0
BITMAP
ENDCHAR
STARTCHAR 0020
ENCODING 32
SWIDTH 180 0
DWIDTH 3 0
BBX 0 0 0 0
BITMAP
ENDCHAR
STARTCHAR 0021
ENCODING 33
SWIDTH 180 0
DWIDTH 3 0
BBX 2 11 0 0
BITMAP
C0
80
C0
C0
80
C0
C0
80
00
80
C0
ENDCHAR
STARTCHAR 0022
ENCODING 34
SWIDTH 420 0
DWIDTH 7 0
BBX 5 3 0 8
BITMAP
D8
88
D8
ENDCHAR
STARTCHAR 0023
ENCODING 35
SWIDTH 600 0
DWIDTH 10 0
BBX 8 11 0 0
BITMAP
26
24
26
FF
AD
26
FF
AD
26
24
26
ENDCHAR
STARTCHAR 0025
ENCODING 37
SWIDTH 540 0
DWIDTH 9 0
BBX 8 11 0 0
BITMAP
E1
A1
E1
06
0C
18
20
20
C7
85
C7
ENDCHAR
STARTCHAR 0026
ENCODING 38
SWIDTH 600 0
DWIDTH 10 0
BBX 8 11 0 0
BITMAP
20
A8
D8
D8
A8
20
D9
89
C6
29
39
ENDCHAR
STARTCHAR 0027
ENCODING 39
SWIDTH 180 0
DWIDTH 3 0
BBX 2 3 0 8
BITMAP
C0
80
C0
ENDCHAR
STARTCHAR 0028
ENCODING 40
SWIDTH 420 0
DWIDTH 7 0
BBX 5 11 0 0
BITMAP
18
28
20
C0
80
C0
C0
80
20
08
18
ENDCHAR
STARTCHAR 0029
ENCODING 41
SWIDTH 420 0
DWIDTH 7 0
BBX 5 11 0 0
BITMAP
C0
A0
20
18
08
18
18
08
20
80
C0
ENDCHAR
STARTCHAR 002A
ENCODING 42
SWIDTH 600 0
DWIDTH 10 0
BBX 8 8 0 0
BITMAP
18
08
18
FF
AD
26
81
C1
ENDCHAR
STARTCHAR 002B
ENCODING 43
SWIDTH 600 0
DWIDTH 10 0
BBX 8 8 0 0
BITMAP
18
08
18
FF
AD
18
08
18
ENDCHAR
STARTCHAR 002C
ENCODING 44
SWIDTH 300 0
DWIDTH 5 0
BBX 3 5 0 -2
BITMAP
20
20
20
C0
80
ENDCHAR
STARTCHAR 002D
ENCODING 45
SWIDTH 420 0
DWIDTH 7 0
BBX 5 2 0 3
BITMAP
A8
F8
ENDCHAR
STARTCHAR 002E
ENCODING 46
SWIDTH 180 0
DWIDTH 3 0
BBX 2 2 0 0
BITMAP
80
C0
ENDCHAR
STARTCHAR 002F
ENCODING 47
SWIDTH 600 0
DWIDTH 10 0
BBX 8 11 0 0
BITMAP
01
01
01
06
0C
18
20
20
C0
80
C0
ENDCHAR
STARTCHAR 0030
ENCODING 48
SWIDTH 480 0
DWIDTH 8 0
BBX 7 11 0 0
BITMAP
38
AC
C6
C6
84
C6
C6
84
C6
28
38
ENDCHAR
STARTCHAR 0031
ENCODING 49
SWIDTH 420 0
DWIDTH 7 0
BBX 5 11 0 0
BITMAP
20
A0
E0
20
20
20
20
20
20
A8
F8
ENDCHAR
STARTCHAR 0032
ENCODING 50
SWIDTH 480 0
DWIDTH 8 0
BBX 7 11 0 0
BITMAP
38
AC
C6
06
0C
18
20
20
C0
AC
FE
ENDCHAR
STARTCHAR 0033
ENCODING 51
SWIDTH 480 0
DWIDTH 8 0
BBX 7 11 0 0
BITMAP
38
AC
C6
06
0C
18
06
04
C6
28
38
ENDCHAR
STARTCHAR 0034
ENCODING 52
SWIDTH 480 0
DWIDTH 8 0
BBX 7 11 0 0
BITMAP
06
0C
1E
26
A4
C6
FE
AC
06
04
06
ENDCHAR
STARTCHAR 0035
ENCODING 53
SWIDTH 480 0
DWIDTH 8 0
BBX 7 11 0 0
BITMAP
FE
AC
C0
F8
AC
06
06
04
C6
28
38
ENDCHAR
STARTCHAR 0036
ENCODING 54
SWIDTH 480 0
DWIDTH 8 0
BBX 7 11 0 0
BITMAP
3E
AC
C0
F8
AC
C6
C6
84
C6
28
38
ENDCHAR
STARTCHAR 0037
ENCODING 55
SWIDTH 480 0
DWIDTH 8 0
BBX 7 11 0 0
BITMAP
FE
AC
06
18
28
20
20
20
20
20
20
ENDCHAR
STARTCHAR 0038
ENCODING 56
SWIDTH 480 0
DWIDTH 8 0
BBX 7 11 0 0
BITMAP
38
AC
C6
C6
AC
38
C6
84
C6
28
38
ENDCHAR
STARTCHAR 0039
ENCODING 57
SWIDTH 480 0
DWIDTH 8 0
BBX 7 11 0 0
BITMAP
38
AC
C6
C6
AC
3E
06
04
C6
28
38
ENDCHAR
STARTCHAR 003A
ENCODING 58
SWIDTH 180 0
DWIDTH 3 0
BBX 2 5 0 2
BITMAP
C0
80
00
80
C0
ENDCHAR
STARTCHAR 003B
ENCODING 59
SWIDTH 300 0
DWIDTH 5 0
BBX 3 9 0 -2
BITMAP
20
20
00
00
20
20
20
C0
80
ENDCHAR
STARTCHAR 003C
ENCODING 60
SWIDTH 420 0
DWIDTH 7 0
BBX 5 8 0 0
BITMAP
18
28
20
C0
80
20
08
18
ENDCHAR
STARTCHAR 003D
ENCODING 61
SWIDTH 480 0
DWIDTH 8 0
BBX 7 5 0 2
BITMAP
FE
AC
00
AC
FE
ENDCHAR
STARTCHAR 003E
ENCODING 62
SWIDTH 420 0
DWIDTH 7 0
BBX 5 8 0 0
BITMAP
C0
A0
20
18
08
20
80
C0
ENDCHAR
STARTCHAR 003F
ENCODING 63
SWIDTH 480 0
DWIDTH 8 0
BBX 7 11 0 0
BITMAP
38
AC
C6
06
0C
18
20
20
00
20
20
ENDCHAR
STARTCHAR 0041
ENCODING 65
SWIDTH 600 0
DWIDTH 10 0
BBX 8 11 0 0
BITMAP
3E
AD
C1
C1
AD
FF
C1
81
C1
81
C1
ENDCHAR
STARTCHAR 0042
ENCODING 66
SWIDTH 480 0
DWIDTH 8 0
BBX 7 11 0 0
BITMAP
F8
AC
C6
C6
AC
F8
C6
84
C6
A8
F8
ENDCHAR
STARTCHAR 0043
ENCODING 67
SWIDTH 480 0
DWIDTH 8 0
BBX 7 11 0 0
BITMAP
38
AC
C6
C0
80
C0
C0
80
C6
28
38
ENDCHAR
STARTCHAR 0044
ENCODING 68
SWIDTH 480 0
DWIDTH 8 0
BBX 7 11 0 0
BITMAP
F8
AC
C6
C6
84
C6
C6
84
C6
A8
F8
ENDCHAR
STARTCHAR 0045
ENCODING 69
SWIDTH 480 0
DWIDTH 8 0
BBX 7 11 0 0
BITMAP
FE
AC
C0
C0
A8
F8
C0
80
C0
AC
FE
ENDCHAR
STARTCHAR 0046
ENCODING 70
SWIDTH 480 0
DWIDTH 8 0
BBX 7 11 0 0
BITMAP
FE
AC
C0
C0
AC
FE
C0
80
C0
80
C0
ENDCHAR
STARTCHAR 0047
ENCODING 71
SWIDTH 480 0
DWIDTH 8 0
BBX 7 11 0 0
BITMAP
38
AC
C6
C0
8C
DE
C6
84
C6
28
38
ENDCHAR
STARTCHAR 0048
ENCODING 72
SWIDTH 480 0
DWIDTH 8 0
BBX 7 11 0 0
BITMAP
C6
84
C6
C6
AC
FE
C6
84
C6
84
C6
ENDCHAR
STARTCHAR 0049
ENCODING 73
SWIDTH 420 0
DWIDTH 7 0
BBX 5 11 0 0
BITMAP
F8
A8
20
20
20
20
20
20
20
A8
F8
ENDCHAR
STARTCHAR 004A
ENCODING 74
SWIDTH 480 0
DWIDTH 8 0
BBX 7 11 0 0
BITMAP
3E
2C
06
06
04
06
06
04
C6
28
38
ENDCHAR
STARTCHAR 004B
ENCODING 75
SWIDTH 600 0
DWIDTH 10 0
BBX 8 11 0 0
BITMAP
C1
85
C6
D8
A8
E0
D8
88
C6
81
C1
ENDCHAR
STARTCHAR 004C
ENCODING 76
SWIDTH 480 0
DWIDTH 8 0
BBX 7 11 0 0
BITMAP
C0
80
C0
C0
80
C0
C0
80
C0
AC
FE
ENDCHAR
STARTCHAR 004D
ENCODING 77
SWIDTH 600 0
DWIDTH 10 0
BBX 8 11 0 0
BITMAP
C1
A5
E7
D9
89
C1
C1
81
C1
81
C1
ENDCHAR
STARTCHAR 004E
ENCODING 78
SWIDTH 480 0
DWIDTH 8 0
BBX 7 11 0 0
BITMAP
C6
A4
E6
DE
8C
C6
C6
84
C6
84
C6
ENDCHAR
STARTCHAR 004F
ENCODING 79
SWIDTH 480 0
DWIDTH 8 0
BBX 7 11 0 0
BITMAP
38
AC
C6
C6
84
C6
C6
84
C6
28
38
ENDCHAR
STARTCHAR 0050
ENCODING 80
SWIDTH 480 0
DWIDTH 8 0
BBX 7 11 0 0
BITMAP
F8
AC
C6
C6
AC
F8
C0
80
C0
80
C0
ENDCHAR
STARTCHAR 0051
ENCODING 81
SWIDTH 480 0
DWIDTH 8 0
BBX 7 13 0 -2
BITMAP
38
AC
C6
C6
84
C6
C6
84
C6
28
38
06
04
ENDCHAR
STARTCHAR 0052
ENCODING 82
SWIDTH 480 0
DWIDTH 8 0
BBX 7 11 0 0
BITMAP
F8
AC
C6
C6
AC
F8
D8
88
C6
84
C6
ENDCHAR
STARTCHAR 0053
ENCODING 83
SWIDTH 480 0
DWIDTH 8 0
BBX 7 11 0 0
BITMAP
38
AC
C6
C0
A8
38
06
04
C6
28
38
ENDCHAR
STARTCHAR 0054
ENCODING 84
SWIDTH 600 0
DWIDTH 10 0
BBX 8 11 0 0
BITMAP
FF
AD
18
18
08
18
18
08
18
08
18
ENDCHAR
STARTCHAR 0055
ENCODING 85
SWIDTH 480 0
DWIDTH 8 0
BBX 7 11 0 0
BITMAP
C6
84
C6
C6
84
C6
C6
84
C6
28
38
ENDCHAR
STARTCHAR 0056
ENCODING 86
SWIDTH 600 0
DWIDTH 10 0
BBX 8 11 0 0
BITMAP
C1
81
C1
C1
81
C1
C1
81
26
08
18
ENDCHAR
STARTCHAR 0057
ENCODING 87
SWIDTH 600 0
DWIDTH 10 0
BBX 8 11 0 0
BITMAP
C1
81
C1
C1
89
D9
D9
89
E7
81
C1
ENDCHAR
STARTCHAR 0058
ENCODING 88
SWIDTH 600 0
DWIDTH 10 0
BBX 8 11 0 0
BITMAP
C1
81
C1
26
2C
18
26
24
C1
81
C1
ENDCHAR
STARTCHAR 0059
ENCODING 89
SWIDTH 600 0
DWIDTH 10 0
BBX 8 11 0 0
BITMAP
C1
81
C1
26
2C
18
18
08
18
08
18
ENDCHAR
STARTCHAR 005A
ENCODING 90
SWIDTH 600 0
DWIDTH 10 0
BBX 8 11 0 0
BITMAP
FF
AD
01
06
0C
18
20
20
C0
AD
FF
ENDCHAR
STARTCHAR 005C
ENCODING 92
SWIDTH 600 0
DWIDTH 10 0
BBX 8 11 0 0
BITMAP
C0
80
C0
20
28
18
06
04
01
01
01
ENDCHAR
STARTCHAR 005F
ENCODING 95
SWIDTH 480 0
DWIDTH 8 0
BBX 7 2 0 0
BITMAP
AC
FE
ENDCHAR
STARTCHAR 0061
ENCODING 97
SWIDTH 480 0
DWIDTH 8 0
BBX 7 8 0 0
BITMAP
38
2C
06
3E
2C
C6
2C
3E
ENDCHAR
STARTCHAR 0062
ENCODING 98
SWIDTH 480 0
DWIDTH 8 0
BBX 7 11 0 0
BITMAP
C0
80
C0
F8
AC
C6
C6
84
C6
A8
F8
ENDCHAR
STARTCHAR 0063
ENCODING 99
SWIDTH 480 0
DWIDTH 8 0
BBX 7 8 0 0
BITMAP
3E
AC
C0
C0
80
C0
2C
3E
ENDCHAR
STARTCHAR 0064
ENCODING 100
SWIDTH 480 0
DWIDTH 8 0
BBX 7 11 0 0
BITMAP
06
04
06
3E
AC
C6
C6
84
C6
2C
3E
ENDCHAR
STARTCHAR 0065
ENCODING 101
SWIDTH 480 0
DWIDTH 8 0
BBX 7 8 0 0
BITMAP
38
AC
C6
FE
AC
C0
2C
3E
ENDCHAR
STARTCHAR 0066
ENCODING 102
SWIDTH 480 0
DWIDTH 8 0
BBX 7 11 0 0
BITMAP
18
2C
26
20
A8
F8
20
20
20
20
20
ENDCHAR
STARTCHAR 0067
ENCODING 103
SWIDTH 480 0
DWIDTH 8 0
BBX 7 11 0 -3
BITMAP
3E
AC
C6
C6
84
C6
2C
3E
06
A8
F8
ENDCHAR
STARTCHAR 0068
ENCODING 104
SWIDTH 480 0
DWIDTH 8 0
BBX 7 11 0 0
BITMAP
C0
80
C0
F8
AC
C6
C6
84
C6
84
C6
ENDCHAR
STARTCHAR 0069
ENCODING 105
SWIDTH 180 0
DWIDTH 3 0
BBX 2 11 0 0
BITMAP
C0
80
00
C0
80
C0
C0
80
C0
80
C0
ENDCHAR
STARTCHAR 006A
ENCODING 106
SWIDTH 420 0
DWIDTH 7 0
BBX 5 11 0 0
BITMAP
18
08
00
18
08
18
18
08
D8
20
20
ENDCHAR
STARTCHAR 006B
ENCODING 107
SWIDTH 480 0
DWIDTH 8 0
BBX 7 11 0 0
BITMAP
C0
80
C0
C6
8C
D8
E0
A0
D8
84
C6
ENDCHAR
STARTCHAR 006C
ENCODING 108
SWIDTH 180 0
DWIDTH 3 0
BBX 2 11 0 0
BITMAP
C0
80
C0
C0
80
C0
C0
80
C0
80
C0
ENDCHAR
STARTCHAR 006D
ENCODING 109
SWIDTH 600 0
DWIDTH 10 0
BBX 8 8 0 0
BITMAP
E6
AD
D9
D9
89
C1
81
C1
ENDCHAR
STARTCHAR 006E
ENCODING 110
SWIDTH 480 0
DWIDTH 8 0
BBX 7 8 0 0
BITMAP
F8
AC
C6
C6
84
C6
84
C6
ENDCHAR
STARTCHAR 006F
ENCODING 111
SWIDTH 480 0
DWIDTH 8 0
BBX 7 8 0 0
BITMAP
38
AC
C6
C6
84
C6
28
38
ENDCHAR
STARTCHAR 0070
ENCODING 112
SWIDTH 480 0
DWIDTH 8 0
BBX 7 11 0 -3
BITMAP
F8
AC
C6
C6
84
C6
A8
F8
C0
80
C0
ENDCHAR
STARTCHAR 0071
ENCODING 113
SWIDTH 480 0
DWIDTH 8 0
BBX 7 11 0 -3
BITMAP
3E
AC
C6
C6
84
C6
2C
3E
06
04
06
ENDCHAR
STARTCHAR 0072
ENCODING 114
SWIDTH 480 0
DWIDTH 8 0
BBX 7 8 0 0
BITMAP
D8
AC
E6
C0
80
C0
80
C0
ENDCHAR
STARTCHAR 0073
ENCODING 115
SWIDTH 480 0
DWIDTH 8 0
BBX 7 8 0 0
BITMAP
3E
AC
C0
38
28
06
A8
F8
ENDCHAR
STARTCHAR 0074
ENCODING 116
SWIDTH 480 0
DWIDTH 8 0
BBX 7 11 0 0
BITMAP
20
20
20
F8
A8
20
20
20
20
0C
1E
ENDCHAR
STARTCHAR 0075
ENCODING 117
SWIDTH 480 0
DWIDTH 8 0
BBX 7 8 0 0
BITMAP
C6
84
C6
C6
84
C6
28
38
ENDCHAR
STARTCHAR 0076
ENCODING 118
SWIDTH 600 0
DWIDTH 10 0
BBX 8 8 0 0
BITMAP
C1
81
C1
C1
81
26
08
18
ENDCHAR
STARTCHAR 0077
ENCODING 119
SWIDTH 600 0
DWIDTH 10 0
BBX 8 8 0 0
BITMAP
C1
81
C1
D9
89
E7
81
C1
ENDCHAR
STARTCHAR 0078
ENCODING 120
SWIDTH 600 0
DWIDTH 10 0
BBX 8 8 0 0
BITMAP
C1
A5
26
18
08
26
81
C1
ENDCHAR
STARTCHAR 0079
ENCODING 121
SWIDTH 480 0
DWIDTH 8 0
BBX 7 11 0 -3
BITMAP
C6
84
C6
C6
84
C6
2C
3E
06
A8
F8
ENDCHAR
STARTCHAR 007A
ENCODING 122
SWIDTH 420 0
DWIDTH 7 0
BBX 5 8 0 0
BITMAP
F8
A8
18
20
20
C0
A8
F8
ENDCHAR
STARTCHAR 007C
ENCODING 124
SWIDTH 120 0
DWIDTH 2 0
BBX 2 14 0 -3
BITMAP
C0
C0
80
C0
80
C0
C0
80
C0
80
C0
C0
80
C0
ENDCHAR
STARTCHAR 2010
ENCODING 8208
SWIDTH 300 0
DWIDTH 5 0
BBX 3 2 0 3
BITMAP
A0
E0
ENDCHAR
STARTCHAR 2011
ENCODING 8209
SWIDTH 300 0
DWIDTH 5 0
BBX 3 2 0 3
BITMAP
A0
E0
ENDCHAR
STARTCHAR 2012
ENCODING 8210
SWIDTH 480 0
DWIDTH 8 0
BBX 7 2 0 3
BITMAP
AC
FE
ENDCHAR
STARTCHAR 2013
ENCODING 8211
SWIDTH 420 0
DWIDTH 7 0
BBX 5 2 0 2
BITMAP
A8
F8
ENDCHAR
STARTCHAR 2014
ENCODING 8212
SWIDTH 480 0
DWIDTH 8 0
BBX 7 2 0 3
BITMAP
AC
FE
ENDCHAR
STARTCHAR 2019
ENCODING 8217
SWIDTH 180 0
DWIDTH 3 0
BBX 2 3 0 8
BITMAP
C0
80
C0
ENDCHAR
STARTCHAR 201C
ENCODING 8220
SWIDTH 420 0
DWIDTH 7 0
BBX 5 3 0 8
BITMAP
D8
88
D8
ENDCHAR
STARTCHAR 201D
ENCODING 8221
SWIDTH 420 0
DWIDTH 7 0
BBX 5 3 0 8
BITMAP
D8
88
D8
ENDCHAR
ENDFONT
