STARTFONT 2.1
COMMENT
COMMENT Converted from OpenType font "davidtrain.ttf" by "otf2bdf 3.0".
COMMENT
FONT -FreeType-davidtrain-Medium-R-Normal--17-120-100-100-P-45-ISO10646-1
SIZE 12 100 100
FONTBOUNDINGBOX 7 9 -2 -2
STARTPROPERTIES 19
FOUNDRY "FreeType"
FAMILY_NAME "davidtrain"
WEIGHT_NAME "Medium"
SLANT "R"
SETWIDTH_NAME "Normal"
ADD_STYLE_NAME ""
PIXEL_SIZE 17
POINT_SIZE 120
RESOLUTION_X 100
RESOLUTION_Y 100
SPACING "P"
AVERAGE_WIDTH 45
CHARSET_REGISTRY "ISO10646"
CHARSET_ENCODING "1"
FONT_ASCENT 11
FONT_DESCENT 2
COPYRIGHT "david"
_OTF_FONTFILE "davidtrain.ttf"
_OTF_PSNAME "davidtrain"
ENDPROPERTIES
CHARS 55
STARTCHAR 0020
ENCODING 32
SWIDTH 300 0
DWIDTH 5 0
BBX 0 0 0 0
BITMAP
ENDCHAR
STARTCHAR 0030
ENCODING 48
SWIDTH 300 0
DWIDTH 5 0
BBX 4 7 0 0
BITMAP
60
90
90
90
90
90
60
ENDCHAR
STARTCHAR 0031
ENCODING 49
SWIDTH 240 0
DWIDTH 4 0
BBX 3 7 0 0
BITMAP
40
C0
40
40
40
40
E0
ENDCHAR
STARTCHAR 0032
ENCODING 50
SWIDTH 300 0
DWIDTH 5 0
BBX 4 7 0 0
BITMAP
60
90
10
20
40
80
F0
ENDCHAR
STARTCHAR 0033
ENCODING 51
SWIDTH 300 0
DWIDTH 5 0
BBX 4 7 0 0
BITMAP
60
90
10
20
10
90
60
ENDCHAR
STARTCHAR 0034
ENCODING 52
SWIDTH 180 0
DWIDTH 3 0
BBX 4 7 -2 0
BITMAP
10
30
50
90
F0
10
10
ENDCHAR
STARTCHAR 0035
ENCODING 53
SWIDTH 300 0
DWIDTH 5 0
BBX 4 7 0 0
BITMAP
F0
80
E0
10
10
90
60
ENDCHAR
STARTCHAR 0036
ENCODING 54
SWIDTH 300 0
DWIDTH 5 0
BBX 4 7 0 0
BITMAP
60
90
80
E0
90
90
60
ENDCHAR
STARTCHAR 0037
ENCODING 55
SWIDTH 300 0
DWIDTH 5 0
BBX 4 7 0 0
BITMAP
F0
10
20
40
40
40
40
ENDCHAR
STARTCHAR 0038
ENCODING 56
SWIDTH 300 0
DWIDTH 5 0
BBX 4 7 0 0
BITMAP
60
90
90
60
90
90
60
ENDCHAR
STARTCHAR 0039
ENCODING 57
SWIDTH 300 0
DWIDTH 5 0
BBX 4 7 0 0
BITMAP
60
90
90
70
10
90
60
ENDCHAR
STARTCHAR 0041
ENCODING 65
SWIDTH 300 0
DWIDTH 5 0
BBX 4 7 0 0
BITMAP
60
90
90
F0
90
90
90
ENDCHAR
STARTCHAR 0042
ENCODING 66
SWIDTH 360 0
DWIDTH 6 0
BBX 5 7 0 0
BITMAP
F0
88
88
F0
88
88
F0
ENDCHAR
STARTCHAR 0043
ENCODING 67
SWIDTH 300 0
DWIDTH 5 0
BBX 4 7 0 0
BITMAP
60
90
80
80
80
90
60
ENDCHAR
STARTCHAR 0044
ENCODING 68
SWIDTH 360 0
DWIDTH 6 0
BBX 5 7 0 0
BITMAP
F0
88
88
88
88
88
F0
ENDCHAR
STARTCHAR 0045
ENCODING 69
SWIDTH 300 0
DWIDTH 5 0
BBX 4 7 0 0
BITMAP
F0
80
80
E0
80
80
F0
ENDCHAR
STARTCHAR 0046
ENCODING 70
SWIDTH 360 0
DWIDTH 6 0
BBX 5 7 0 0
BITMAP
F8
80
80
F0
80
80
80
ENDCHAR
STARTCHAR 0047
ENCODING 71
SWIDTH 360 0
DWIDTH 6 0
BBX 5 7 0 0
BITMAP
70
88
80
B8
88
88
70
ENDCHAR
STARTCHAR 0048
ENCODING 72
SWIDTH 360 0
DWIDTH 6 0
BBX 5 7 0 0
BITMAP
88
88
88
F8
88
88
88
ENDCHAR
STARTCHAR 0049
ENCODING 73
SWIDTH 240 0
DWIDTH 4 0
BBX 3 7 0 0
BITMAP
E0
40
40
40
40
40
E0
ENDCHAR
STARTCHAR 004A
ENCODING 74
SWIDTH 360 0
DWIDTH 6 0
BBX 5 7 0 0
BITMAP
78
10
10
10
10
90
60
ENDCHAR
STARTCHAR 004C
ENCODING 76
SWIDTH 360 0
DWIDTH 6 0
BBX 5 7 0 0
BITMAP
80
80
80
80
80
80
F8
ENDCHAR
STARTCHAR 004E
ENCODING 78
SWIDTH 360 0
DWIDTH 6 0
BBX 5 7 0 0
BITMAP
88
C8
A8
98
88
88
88
ENDCHAR
STARTCHAR 004F
ENCODING 79
SWIDTH 360 0
DWIDTH 6 0
BBX 5 7 0 0
BITMAP
70
88
88
88
88
88
70
ENDCHAR
STARTCHAR 0050
ENCODING 80
SWIDTH 360 0
DWIDTH 6 0
BBX 5 7 0 0
BITMAP
F0
88
88
F0
80
80
80
ENDCHAR
STARTCHAR 0051
ENCODING 81
SWIDTH 360 0
DWIDTH 6 0
BBX 5 7 0 0
BITMAP
70
88
88
88
A8
90
68
ENDCHAR
STARTCHAR 0052
ENCODING 82
SWIDTH 360 0
DWIDTH 6 0
BBX 5 7 0 0
BITMAP
F0
88
88
F0
A0
90
88
ENDCHAR
STARTCHAR 0053
ENCODING 83
SWIDTH 360 0
DWIDTH 6 0
BBX 5 7 0 0
BITMAP
70
88
80
70
08
88
70
ENDCHAR
STARTCHAR 0054
ENCODING 84
SWIDTH 360 0
DWIDTH 6 0
BBX 5 7 0 0
BITMAP
F8
20
20
20
20
20
20
ENDCHAR
STARTCHAR 0055
ENCODING 85
SWIDTH 360 0
DWIDTH 6 0
BBX 5 7 0 0
BITMAP
88
88
88
88
88
88
70
ENDCHAR
STARTCHAR 0057
ENCODING 87
SWIDTH 360 0
DWIDTH 6 0
BBX 5 7 0 0
BITMAP
88
88
88
A8
A8
D8
88
ENDCHAR
STARTCHAR 0061
ENCODING 97
SWIDTH 300 0
DWIDTH 5 0
BBX 4 5 0 0
BITMAP
60
10
70
90
70
ENDCHAR
STARTCHAR 0062
ENCODING 98
SWIDTH 300 0
DWIDTH 5 0
BBX 4 7 0 0
BITMAP
80
80
E0
90
90
90
E0
ENDCHAR
STARTCHAR 0063
ENCODING 99
SWIDTH 360 0
DWIDTH 6 0
BBX 5 5 0 0
BITMAP
70
88
80
88
70
ENDCHAR
STARTCHAR 0064
ENCODING 100
SWIDTH 300 0
DWIDTH 5 0
BBX 4 7 0 0
BITMAP
10
10
70
90
90
90
70
ENDCHAR
STARTCHAR 0065
ENCODING 101
SWIDTH 300 0
DWIDTH 5 0
BBX 4 5 0 0
BITMAP
60
90
E0
80
70
ENDCHAR
STARTCHAR 0066
ENCODING 102
SWIDTH 240 0
DWIDTH 4 0
BBX 4 7 -1 0
BITMAP
20
50
40
E0
40
40
40
ENDCHAR
STARTCHAR 0067
ENCODING 103
SWIDTH 300 0
DWIDTH 5 0
BBX 4 7 0 -2
BITMAP
60
90
90
90
70
10
E0
ENDCHAR
STARTCHAR 0068
ENCODING 104
SWIDTH 300 0
DWIDTH 5 0
BBX 4 7 0 0
BITMAP
80
80
E0
90
90
90
90
ENDCHAR
STARTCHAR 0069
ENCODING 105
SWIDTH 120 0
DWIDTH 2 0
BBX 1 7 0 0
BITMAP
80
00
80
80
80
80
80
ENDCHAR
STARTCHAR 006B
ENCODING 107
SWIDTH 300 0
DWIDTH 5 0
BBX 4 7 0 0
BITMAP
80
80
90
A0
C0
A0
90
ENDCHAR
STARTCHAR 006C
ENCODING 108
SWIDTH 120 0
DWIDTH 2 0
BBX 1 7 0 0
BITMAP
80
80
80
80
80
80
80
ENDCHAR
STARTCHAR 006D
ENCODING 109
SWIDTH 360 0
DWIDTH 6 0
BBX 5 5 0 0
BITMAP
D0
A8
A8
88
88
ENDCHAR
STARTCHAR 006E
ENCODING 110
SWIDTH 300 0
DWIDTH 5 0
BBX 4 5 0 0
BITMAP
A0
D0
90
90
90
ENDCHAR
STARTCHAR 006F
ENCODING 111
SWIDTH 300 0
DWIDTH 5 0
BBX 4 5 0 0
BITMAP
60
90
90
90
60
ENDCHAR
STARTCHAR 0070
ENCODING 112
SWIDTH 300 0
DWIDTH 5 0
BBX 4 7 0 -2
BITMAP
E0
90
90
90
E0
80
80
ENDCHAR
STARTCHAR 0072
ENCODING 114
SWIDTH 300 0
DWIDTH 5 0
BBX 4 5 0 0
BITMAP
A0
D0
80
80
80
ENDCHAR
STARTCHAR 0073
ENCODING 115
SWIDTH 300 0
DWIDTH 5 0
BBX 4 5 0 0
BITMAP
70
80
60
10
E0
ENDCHAR
STARTCHAR 0074
ENCODING 116
SWIDTH 240 0
DWIDTH 4 0
BBX 4 7 -1 0
BITMAP
40
40
E0
40
40
40
30
ENDCHAR
STARTCHAR 0075
ENCODING 117
SWIDTH 300 0
DWIDTH 5 0
BBX 4 5 0 0
BITMAP
90
90
90
90
60
ENDCHAR
STARTCHAR 0076
ENCODING 118
SWIDTH 360 0
DWIDTH 6 0
BBX 5 5 0 0
BITMAP
88
88
88
50
20
ENDCHAR
STARTCHAR 0077
ENCODING 119
SWIDTH 360 0
DWIDTH 6 0
BBX 5 5 0 0
BITMAP
88
88
A8
A8
50
ENDCHAR
STARTCHAR 0078
ENCODING 120
SWIDTH 360 0
DWIDTH 6 0
BBX 5 5 0 0
BITMAP
88
50
20
50
88
ENDCHAR
STARTCHAR 0079
ENCODING 121
SWIDTH 300 0
DWIDTH 5 0
BBX 4 7 0 -2
BITMAP
90
90
90
90
70
10
E0
ENDCHAR
STARTCHAR 00A0
ENCODING 160
SWIDTH 300 0
DWIDTH 5 0
BBX 0 0 0 0
BITMAP
ENDCHAR
ENDFONT
